{"title":"Spy Kids 4 2011 TS Xvid-UnKnOwN","uid":6621218,"size":945427609,"categoryP":"video","categoryS":"movies","magnet":"?xt=urn:btih:463050e2f1dc0f612a7576334040fcdb80846dcd&amp;dn=Spy+Kids+4+2011+TS+Xvid-UnKnOwN&amp;tr=udp%3A%2F%2Ftracker.openbittorrent.com%3A80&amp;tr=udp%3A%2F%2Fopen.demonii.com%3A1337&amp;tr=udp%3A%2F%2Ftracker.coppersurfer.tk%3A6969&amp;tr=udp%3A%2F%2Fexodus.desync.com%3A6969","seeders":1,"leechers":0,"uploader":"SnowCrash03","files":-1,"time":1314005951,"description":"Spy Kids 4 2011 TS Xvid - UnKnOwN\n\nEncoded By .......: UnKnOwN\nRuntime ..........: 1:22\nIMDb URL .........: http://www.imdb.com/title/tt1517489/\nLanguage .........: English\nFile Size ........: 940mb\nRelease Date ......... 2011\nSource ......... Russian/Choice\nFile Type ......... Single AVI\nPS3 Compatible ....... Go for It\nGenre ......... Comedy/Kids\n\nVideo\nID : 0\nFormat : MPEG-4 Visual\nFormat profile : Advanced Simple@L5\nFormat settings, BVOP : Yes\nFormat settings, QPel : No\nFormat settings, GMC : No warppoints\nFormat settings, Matrix : Custom\nCodec ID : XVID\nCodec ID/Hint : XviD\nDuration : 1h 22mn\nBit rate : 1 398 Kbps\nWidth : 660pixels\nHeight : 332pixels\nDisplay aspect ratio : 1.988\nFrame rate : 25.000fps\nColor space : YUV\nChroma subsampling : 4:2:0\nBit depth : 8 bits\nScan type : Progressive\nBits/(Pixel*Frame) : 0.234\nStream size : 892 MiB (86%)\nWriting library : XviD 1.2.1 (UTC 2008-12-04)\n\nAudio\nID : 1\nFormat : AC3\nFormat/Info : Version 1\nMode extension : MPEG\nCodec ID : 2000\nDuration : 1h 22mn\nBit rate mode : Constant\nBit rate : 128Kbps\nChannel(s) : 2channels\nChannel positions : Front: L R\nSampling rate : 44.0 KHz\nBit depth : 16 bits\nStream size : 302 MiB\nAlignment : Aligned on interleaves\nInterleave, duration : 42 ms (1.00 video frame)\nInterleave, preload duration : 512 ms\n\nSYSPNOSIS\nA retired spy is called back into action, and to bond with her new\nstep-children, she invites them along for the adventure to stop the evil\nTimekeeper from taking over the world.\na\n\nRELEASE INFO\n\nFixed all the colors effects of 3d,denoiser,cm,bla bla look at screen\ncomparisons,audio is okay not the best removed hiss and muxed back\nwatchable cam sample included\n","torrent":{"xt":"urn:btih:463050e2f1dc0f612a7576334040fcdb80846dcd","amp;dn":"Spy+Kids+4+2011+TS+Xvid-UnKnOwN","amp;tr":["udp%3A%2F%2Ftracker.openbittorrent.com%3A80","udp%3A%2F%2Fopen.demonii.com%3A1337","udp%3A%2F%2Ftracker.coppersurfer.tk%3A6969","udp%3A%2F%2Fexodus.desync.com%3A6969"],"infoHash":"463050e2f1dc0f612a7576334040fcdb80846dcd","infoHashBuffer":{"type":"Buffer","data":[70,48,80,226,241,220,15,97,42,117,118,51,64,64,252,219,128,132,109,205]},"announce":[],"urlList":[]}}